<svg width="60" height="64" viewBox="0 0 60 64" fill="none" xmlns="http://www.w3.org/2000/svg">
<path fill-rule="evenodd" clip-rule="evenodd" d="M30.0839 12.0305C36.2122 11.5778 40.676 16.2749 45.5355 19.1991C50.2098 22.0118 55.492 24.4648 57.7737 28.6927C60.1632 33.1204 61.0785 38.4665 58.2347 42.7305C55.5039 46.825 48.6807 47.6526 43.5598 50.0043C39.0554 52.073 35.2543 55.0084 30.0839 55.6585C24.2681 56.3898 17.8499 56.4354 12.9998 53.8467C8.10711 51.2353 6.66437 46.3728 4.60426 42.059C2.44906 37.5461 -1.75267 32.6794 0.795232 28.2907C3.34554 23.8978 11.5796 24.141 16.6366 21.3334C21.6446 18.5532 23.948 12.4836 30.0839 12.0305Z" fill="#C1DBE3"/>
<path d="M23.3945 43.2734C18.6367 43.2734 16.2578 40.6621 16.2578 35.4395C16.2578 32.8418 16.9049 30.8594 18.1992 29.4922C19.4935 28.1159 21.3483 27.4277 23.7637 27.4277C25.5319 27.4277 27.1178 27.7741 28.5215 28.4668L27.291 31.6934C26.6348 31.429 26.0241 31.2148 25.459 31.0508C24.8939 30.8776 24.3288 30.791 23.7637 30.791C21.5944 30.791 20.5098 32.3314 20.5098 35.4121C20.5098 38.4017 21.5944 39.8965 23.7637 39.8965C24.5658 39.8965 25.3086 39.7917 25.9922 39.582C26.6758 39.3633 27.3594 39.026 28.043 38.5703V42.1387C27.3685 42.5671 26.6849 42.8633 25.9922 43.0273C25.3086 43.1914 24.4427 43.2734 23.3945 43.2734ZM35.7676 43H31.5977V21.7266H35.7676V43ZM39.5684 41.0449C39.5684 40.2793 39.7734 39.7005 40.1836 39.3086C40.5938 38.9167 41.1908 38.7207 41.9746 38.7207C42.7311 38.7207 43.3145 38.9212 43.7246 39.3223C44.1439 39.7233 44.3535 40.2975 44.3535 41.0449C44.3535 41.765 44.1439 42.3346 43.7246 42.7539C43.3053 43.1641 42.722 43.3691 41.9746 43.3691C41.209 43.3691 40.6165 43.1686 40.1973 42.7676C39.778 42.3574 39.5684 41.7832 39.5684 41.0449Z" fill="white"/>
</svg>
