<svg width="528" height="388" viewBox="0 0 528 388" fill="none" xmlns="http://www.w3.org/2000/svg">
<path fill-rule="evenodd" clip-rule="evenodd" d="M264.738 0.267971C318.668 -3.71505 357.949 37.6192 400.712 63.3519C441.846 88.1041 488.33 109.69 508.408 146.895C529.436 185.86 537.491 232.906 512.465 270.429C488.434 306.46 428.391 313.743 383.327 334.438C343.688 352.642 310.237 378.474 264.738 384.195C213.559 390.63 157.079 391.032 114.398 368.251C71.3426 345.271 58.6465 302.481 40.5175 264.519C21.5517 224.806 -15.4235 181.979 6.99804 143.358C29.4408 104.701 101.901 106.84 146.402 82.1343C190.472 57.6678 210.742 4.25595 264.738 0.267971Z" fill="white"/>
</svg>
